<?xml version="1.0" encoding="UTF-8"?>
<svg viewBox="0 0 744.09 1052.4" xmlns="http://www.w3.org/2000/svg">
 <path d="m632.66 719.97c46.147 0 83.518-37.371 83.518-83.518v-532.46c0-46.076-37.371-83.518-83.518-83.518h-532.46c-46.218 0-83.518 37.441-83.518 83.518v532.46c0 46.147 37.3 83.518 83.518 83.518h532.46z" fill="#007f7f"/>
 <path d="m100.2 34.627c-38.291 0-69.362 31.142-69.362 69.362v532.46c0 38.22 31.071 69.362 69.362 69.362h532.46c38.22 0 69.291-31.142 69.291-69.362v-532.46c0-38.22-31.072-69.362-69.291-69.362h-532.46z" fill="#fff"/>
 <g fill="#007f7f">
  <path d="m533.43 168.11c25.834 0 46.855-20.879 46.855-46.713s-21.021-46.855-46.855-46.855c-25.905 0-46.784 21.021-46.784 46.855s20.88 46.713 46.784 46.713"/>
  <path d="m404.83 280.37h-70.495c-27.886 0-27.886 36.734 0 36.734l80.616-0.1416c5.9453 0 12.174-3.1142 16.845-10.617l40.485-63.842-0.1415 379.58c0 14.51 11.749 26.258 26.258 26.258 14.58 0 26.329-11.749 26.329-26.258v-220.19h17.694l-0.1415 220.19c0 14.51 11.749 26.258 26.258 26.258s26.258-11.749 26.258-26.258v-379.58h17.411v139.86c0 28.24 36.734 28.24 36.592 0v-142.76c0-31.142-23.994-61.647-60.515-61.647h-86.42c-21.021 0-39.211 10.758-50.04 27.179l-46.996 75.237z"/>
  <path d="m123.7 515.35c42.113 0 76.298 34.186 76.298 76.298l-0.7078 51.88h89.817l81.324-229.39 0.4247-77.643-272.92 0.1416-0.1416 178.57 25.905 0.1415z"/>
  <path d="m122.71 616.7c13.802 0 24.984-11.183 24.984-25.055 0-13.802-11.183-24.984-24.984-24.984-13.802 0-25.055 11.183-25.055 24.984 0 13.872 11.254 25.055 25.055 25.055m-57.684-25.055c0-31.779 25.905-57.613 57.684-57.613s57.613 25.834 57.613 57.613c0 31.85-25.834 57.684-57.613 57.684s-57.684-25.834-57.684-57.684"/>
  <path d="m320.53 219.14l-10.829 5.2375-5.096-10.687-10.617 5.1668-5.096-10.687-10.687 5.1668-5.2375-10.687h0.14154l-10.758 5.2375-5.1668-10.758v0.14156l-10.617 5.096-5.096-10.9-32.345 92.223c-2.6896 7.4317 1.3448 15.713 8.8472 18.261l52.234 18.048c7.4317 2.6896 15.642-1.3448 18.261-8.8472l32.062-92.011z"/>
  <path d="m274.74 125.65l-15.076-12.669-177.3 210.07 15.146 12.74 177.23-210.14z"/>
 </g>
</svg>
